<svg xmlns="http://www.w3.org/2000/svg" xmlns:xlink="http://www.w3.org/1999/xlink" width="851pt" height="211pt" viewBox="0.00 0.00 851.00 211.00">
<g id="graph0" class="graph" transform="scale(1 1) rotate(0) translate(4 206.6)">
<title>ComputationGraph</title>
<polygon fill="white" stroke="none" points="-4,4 -4,-206.6 846.99,-206.6 846.99,4 -4,4"/>
<!-- tensor_4385828176 -->
<g id="node1" class="node">
<title>tensor_4385828176</title>
<path fill="lightblue" stroke="black" d="M830.99,-98.6C830.99,-98.6 798.27,-98.6 798.27,-98.6 792.27,-98.6 786.27,-92.6 786.27,-86.6 786.27,-86.6 786.27,-53 786.27,-53 786.27,-47 792.27,-41 798.27,-41 798.27,-41 830.99,-41 830.99,-41 836.99,-41 842.99,-47 842.99,-53 842.99,-53 842.99,-86.6 842.99,-86.6 842.99,-92.6 836.99,-98.6 830.99,-98.6"/>
<text xml:space="preserve" text-anchor="middle" x="814.63" y="-83.3" font-family="Times,serif" font-size="9.00">z</text>
<text xml:space="preserve" text-anchor="middle" x="814.63" y="-72.5" font-family="Times,serif" font-size="9.00">shape=(1)</text>
<text xml:space="preserve" text-anchor="middle" x="814.63" y="-61.7" font-family="Times,serif" font-size="9.00">val=[8.848]</text>
<text xml:space="preserve" text-anchor="middle" x="814.63" y="-50.9" font-family="Times,serif" font-size="9.00">grad=[1.]</text>
</g>
<!-- tensor_4339329472 -->
<g id="node2" class="node">
<title>tensor_4339329472</title>
<path fill="lightblue" stroke="black" d="M663.91,-129.6C663.91,-129.6 626.7,-129.6 626.7,-129.6 620.7,-129.6 614.7,-123.6 614.7,-117.6 614.7,-117.6 614.7,-84 614.7,-84 614.7,-78 620.7,-72 626.7,-72 626.7,-72 663.91,-72 663.91,-72 669.91,-72 675.91,-78 675.91,-84 675.91,-84 675.91,-117.6 675.91,-117.6 675.91,-123.6 669.91,-129.6 663.91,-129.6"/>
<text xml:space="preserve" text-anchor="middle" x="645.31" y="-114.3" font-family="Times,serif" font-size="9.00">unnamed</text>
<text xml:space="preserve" text-anchor="middle" x="645.31" y="-103.5" font-family="Times,serif" font-size="9.00">shape=(1)</text>
<text xml:space="preserve" text-anchor="middle" x="645.31" y="-92.7" font-family="Times,serif" font-size="9.00">val=[8.1548]</text>
<text xml:space="preserve" text-anchor="middle" x="645.31" y="-81.9" font-family="Times,serif" font-size="9.00">grad=[1.]</text>
</g>
<!-- op_4385828176 -->
<g id="node9" class="node">
<title>op_4385828176</title>
<ellipse fill="orange" stroke="black" cx="731.09" cy="-69.8" rx="19.18" ry="19.18"/>
<text xml:space="preserve" text-anchor="middle" x="731.09" y="-67.1" font-family="Times,serif" font-size="9.00">add</text>
</g>
<!-- tensor_4339329472&#45;&gt;op_4385828176 -->
<g id="edge2" class="edge">
<title>tensor_4339329472-&gt;op_4385828176</title>
<path fill="none" stroke="black" d="M676.08,-89.78C684.49,-86.67 693.61,-83.3 701.92,-80.22"/>
<polygon fill="black" stroke="black" points="703.02,-83.55 711.19,-76.79 700.6,-76.98 703.02,-83.55"/>
</g>
<!-- tensor_4385974192 -->
<g id="node3" class="node">
<title>tensor_4385974192</title>
<path fill="lightblue" stroke="black" d="M467.82,-134.6C467.82,-134.6 425.61,-134.6 425.61,-134.6 419.61,-134.6 413.61,-128.6 413.61,-122.6 413.61,-122.6 413.61,-89 413.61,-89 413.61,-83 419.61,-77 425.61,-77 425.61,-77 467.82,-77 467.82,-77 473.82,-77 479.82,-83 479.82,-89 479.82,-89 479.82,-122.6 479.82,-122.6 479.82,-128.6 473.82,-134.6 467.82,-134.6"/>
<text xml:space="preserve" text-anchor="middle" x="446.72" y="-119.3" font-family="Times,serif" font-size="9.00">unnamed</text>
<text xml:space="preserve" text-anchor="middle" x="446.72" y="-108.5" font-family="Times,serif" font-size="9.00">shape=(1)</text>
<text xml:space="preserve" text-anchor="middle" x="446.72" y="-97.7" font-family="Times,serif" font-size="9.00">val=[3.]</text>
<text xml:space="preserve" text-anchor="middle" x="446.72" y="-86.9" font-family="Times,serif" font-size="9.00">grad=[2.7183]</text>
</g>
<!-- op_4339329472 -->
<g id="node10" class="node">
<title>op_4339329472</title>
<ellipse fill="orange" stroke="black" cx="547.26" cy="-106.8" rx="31.44" ry="31.44"/>
<text xml:space="preserve" text-anchor="middle" x="547.26" y="-104.1" font-family="Times,serif" font-size="9.00">multiply</text>
</g>
<!-- tensor_4385974192&#45;&gt;op_4339329472 -->
<g id="edge4" class="edge">
<title>tensor_4385974192-&gt;op_4339329472</title>
<path fill="none" stroke="black" d="M480.26,-106.13C487.86,-106.21 496.08,-106.29 504.04,-106.37"/>
<polygon fill="black" stroke="black" points="503.88,-109.87 513.91,-106.47 503.95,-102.87 503.88,-109.87"/>
</g>
<!-- tensor_4340656288 -->
<g id="node4" class="node">
<title>tensor_4340656288</title>
<path fill="lightblue" stroke="black" d="M268.4,-133.6C268.4,-133.6 226.18,-133.6 226.18,-133.6 220.18,-133.6 214.18,-127.6 214.18,-121.6 214.18,-121.6 214.18,-88 214.18,-88 214.18,-82 220.18,-76 226.18,-76 226.18,-76 268.4,-76 268.4,-76 274.4,-76 280.4,-82 280.4,-88 280.4,-88 280.4,-121.6 280.4,-121.6 280.4,-127.6 274.4,-133.6 268.4,-133.6"/>
<text xml:space="preserve" text-anchor="middle" x="247.29" y="-118.3" font-family="Times,serif" font-size="9.00">unnamed</text>
<text xml:space="preserve" text-anchor="middle" x="247.29" y="-107.5" font-family="Times,serif" font-size="9.00">shape=(1)</text>
<text xml:space="preserve" text-anchor="middle" x="247.29" y="-96.7" font-family="Times,serif" font-size="9.00">val=[1.]</text>
<text xml:space="preserve" text-anchor="middle" x="247.29" y="-85.9" font-family="Times,serif" font-size="9.00">grad=[2.7183]</text>
</g>
<!-- op_4385974192 -->
<g id="node11" class="node">
<title>op_4385974192</title>
<ellipse fill="orange" stroke="black" cx="347" cy="-104.8" rx="19.18" ry="19.18"/>
<text xml:space="preserve" text-anchor="middle" x="347" y="-102.1" font-family="Times,serif" font-size="9.00">add</text>
</g>
<!-- tensor_4340656288&#45;&gt;op_4385974192 -->
<g id="edge6" class="edge">
<title>tensor_4340656288-&gt;op_4385974192</title>
<path fill="none" stroke="black" d="M280.83,-104.8C292.24,-104.8 305,-104.8 316.18,-104.8"/>
<polygon fill="black" stroke="black" points="316.05,-108.3 326.05,-104.8 316.05,-101.3 316.05,-108.3"/>
</g>
<!-- tensor_4340950608 -->
<g id="node5" class="node">
<title>tensor_4340950608</title>
<path fill="lightblue" stroke="black" d="M58.71,-168.6C58.71,-168.6 12,-168.6 12,-168.6 6,-168.6 0,-162.6 0,-156.6 0,-156.6 0,-123 0,-123 0,-117 6,-111 12,-111 12,-111 58.71,-111 58.71,-111 64.71,-111 70.71,-117 70.71,-123 70.71,-123 70.71,-156.6 70.71,-156.6 70.71,-162.6 64.71,-168.6 58.71,-168.6"/>
<text xml:space="preserve" text-anchor="middle" x="35.36" y="-153.3" font-family="Times,serif" font-size="9.00">x</text>
<text xml:space="preserve" text-anchor="middle" x="35.36" y="-142.5" font-family="Times,serif" font-size="9.00">shape=(1)</text>
<text xml:space="preserve" text-anchor="middle" x="35.36" y="-131.7" font-family="Times,serif" font-size="9.00">val=[1.]</text>
<text xml:space="preserve" text-anchor="middle" x="35.36" y="-120.9" font-family="Times,serif" font-size="9.00">grad=[13.5914]</text>
</g>
<!-- op_4340656288 -->
<g id="node12" class="node">
<title>op_4340656288</title>
<ellipse fill="orange" stroke="black" cx="142.45" cy="-103.8" rx="35.74" ry="35.74"/>
<text xml:space="preserve" text-anchor="middle" x="142.45" y="-101.1" font-family="Times,serif" font-size="9.00">&lt;lambda&gt;</text>
</g>
<!-- tensor_4340950608&#45;&gt;op_4340656288 -->
<g id="edge8" class="edge">
<title>tensor_4340950608-&gt;op_4340656288</title>
<path fill="none" stroke="black" d="M71.06,-127.91C79.47,-125.03 88.56,-121.92 97.34,-118.91"/>
<polygon fill="black" stroke="black" points="98.45,-122.23 106.78,-115.68 96.18,-115.61 98.45,-122.23"/>
</g>
<!-- op_4385974864 -->
<g id="node13" class="node">
<title>op_4385974864</title>
<ellipse fill="orange" stroke="black" cx="142.45" cy="-176.8" rx="19.18" ry="19.18"/>
<text xml:space="preserve" text-anchor="middle" x="142.45" y="-174.1" font-family="Times,serif" font-size="9.00">exp</text>
</g>
<!-- tensor_4340950608&#45;&gt;op_4385974864 -->
<g id="edge12" class="edge">
<title>tensor_4340950608-&gt;op_4385974864</title>
<path fill="none" stroke="black" d="M71.06,-152.02C84.75,-156.84 100.27,-162.3 113.24,-166.87"/>
<polygon fill="black" stroke="black" points="111.86,-170.09 122.46,-170.11 114.19,-163.49 111.86,-170.09"/>
</g>
<!-- tensor_4340653648 -->
<g id="node6" class="node">
<title>tensor_4340653648</title>
<path fill="lightblue" stroke="black" d="M268.4,-57.6C268.4,-57.6 226.18,-57.6 226.18,-57.6 220.18,-57.6 214.18,-51.6 214.18,-45.6 214.18,-45.6 214.18,-12 214.18,-12 214.18,-6 220.18,0 226.18,0 226.18,0 268.4,0 268.4,0 274.4,0 280.4,-6 280.4,-12 280.4,-12 280.4,-45.6 280.4,-45.6 280.4,-51.6 274.4,-57.6 268.4,-57.6"/>
<text xml:space="preserve" text-anchor="middle" x="247.29" y="-42.3" font-family="Times,serif" font-size="9.00">y</text>
<text xml:space="preserve" text-anchor="middle" x="247.29" y="-31.5" font-family="Times,serif" font-size="9.00">shape=(1)</text>
<text xml:space="preserve" text-anchor="middle" x="247.29" y="-20.7" font-family="Times,serif" font-size="9.00">val=[2.]</text>
<text xml:space="preserve" text-anchor="middle" x="247.29" y="-9.9" font-family="Times,serif" font-size="9.00">grad=[3.2183]</text>
</g>
<!-- tensor_4340653648&#45;&gt;op_4385974192 -->
<g id="edge9" class="edge">
<title>tensor_4340653648-&gt;op_4385974192</title>
<path fill="none" stroke="black" d="M280.83,-54.11C294.45,-64.71 309.99,-76.79 322.48,-86.5"/>
<polygon fill="black" stroke="black" points="320.11,-89.1 330.16,-92.47 324.41,-83.57 320.11,-89.1"/>
</g>
<!-- op_4385828368 -->
<g id="node14" class="node">
<title>op_4385828368</title>
<ellipse fill="orange" stroke="black" cx="347" cy="-28.8" rx="18.13" ry="18.13"/>
<text xml:space="preserve" text-anchor="middle" x="347" y="-26.1" font-family="Times,serif" font-size="9.00">log</text>
</g>
<!-- tensor_4340653648&#45;&gt;op_4385828368 -->
<g id="edge15" class="edge">
<title>tensor_4340653648-&gt;op_4385828368</title>
<path fill="none" stroke="black" d="M280.83,-28.8C292.49,-28.8 305.55,-28.8 316.9,-28.8"/>
<polygon fill="black" stroke="black" points="316.88,-32.3 326.88,-28.8 316.88,-25.3 316.88,-32.3"/>
</g>
<!-- tensor_4385974864 -->
<g id="node7" class="node">
<title>tensor_4385974864</title>
<path fill="lightblue" stroke="black" d="M365.61,-202.6C365.61,-202.6 328.4,-202.6 328.4,-202.6 322.4,-202.6 316.4,-196.6 316.4,-190.6 316.4,-190.6 316.4,-157 316.4,-157 316.4,-151 322.4,-145 328.4,-145 328.4,-145 365.61,-145 365.61,-145 371.61,-145 377.61,-151 377.61,-157 377.61,-157 377.61,-190.6 377.61,-190.6 377.61,-196.6 371.61,-202.6 365.61,-202.6"/>
<text xml:space="preserve" text-anchor="middle" x="347" y="-187.3" font-family="Times,serif" font-size="9.00">unnamed</text>
<text xml:space="preserve" text-anchor="middle" x="347" y="-176.5" font-family="Times,serif" font-size="9.00">shape=(1)</text>
<text xml:space="preserve" text-anchor="middle" x="347" y="-165.7" font-family="Times,serif" font-size="9.00">val=[2.7183]</text>
<text xml:space="preserve" text-anchor="middle" x="347" y="-154.9" font-family="Times,serif" font-size="9.00">grad=[3.]</text>
</g>
<!-- tensor_4385974864&#45;&gt;op_4339329472 -->
<g id="edge10" class="edge">
<title>tensor_4385974864-&gt;op_4339329472</title>
<path fill="none" stroke="black" d="M378.03,-169.47C405.22,-164.96 446.07,-156.73 479.82,-143.8 490.16,-139.84 500.86,-134.5 510.57,-129.11"/>
<polygon fill="black" stroke="black" points="512.03,-132.31 518.96,-124.29 508.54,-126.24 512.03,-132.31"/>
</g>
<!-- tensor_4385828368 -->
<g id="node8" class="node">
<title>tensor_4385828368</title>
<path fill="lightblue" stroke="black" d="M565.87,-57.6C565.87,-57.6 528.65,-57.6 528.65,-57.6 522.65,-57.6 516.65,-51.6 516.65,-45.6 516.65,-45.6 516.65,-12 516.65,-12 516.65,-6 522.65,0 528.65,0 528.65,0 565.87,0 565.87,0 571.87,0 577.87,-6 577.87,-12 577.87,-12 577.87,-45.6 577.87,-45.6 577.87,-51.6 571.87,-57.6 565.87,-57.6"/>
<text xml:space="preserve" text-anchor="middle" x="547.26" y="-42.3" font-family="Times,serif" font-size="9.00">unnamed</text>
<text xml:space="preserve" text-anchor="middle" x="547.26" y="-31.5" font-family="Times,serif" font-size="9.00">shape=(1)</text>
<text xml:space="preserve" text-anchor="middle" x="547.26" y="-20.7" font-family="Times,serif" font-size="9.00">val=[0.6931]</text>
<text xml:space="preserve" text-anchor="middle" x="547.26" y="-9.9" font-family="Times,serif" font-size="9.00">grad=[1.]</text>
</g>
<!-- tensor_4385828368&#45;&gt;op_4385828176 -->
<g id="edge13" class="edge">
<title>tensor_4385828368-&gt;op_4385828176</title>
<path fill="none" stroke="black" d="M578.29,-35.57C612.39,-43.26 667.66,-55.72 701.26,-63.3"/>
<polygon fill="black" stroke="black" points="700.17,-66.64 710.7,-65.43 701.71,-59.81 700.17,-66.64"/>
</g>
<!-- op_4385828176&#45;&gt;tensor_4385828176 -->
<g id="edge1" class="edge">
<title>op_4385828176-&gt;tensor_4385828176</title>
<path fill="none" stroke="black" d="M750.6,-69.8C757.77,-69.8 766.26,-69.8 774.66,-69.8"/>
<polygon fill="black" stroke="black" points="774.4,-73.3 784.4,-69.8 774.4,-66.3 774.4,-73.3"/>
</g>
<!-- op_4339329472&#45;&gt;tensor_4339329472 -->
<g id="edge3" class="edge">
<title>op_4339329472-&gt;tensor_4339329472</title>
<path fill="none" stroke="black" d="M578.91,-104.89C586.51,-104.41 594.78,-103.89 602.8,-103.39"/>
<polygon fill="black" stroke="black" points="603,-106.89 612.76,-102.77 602.56,-99.9 603,-106.89"/>
</g>
<!-- op_4385974192&#45;&gt;tensor_4385974192 -->
<g id="edge5" class="edge">
<title>op_4385974192-&gt;tensor_4385974192</title>
<path fill="none" stroke="black" d="M366.38,-104.99C376.46,-105.09 389.41,-105.22 401.91,-105.35"/>
<polygon fill="black" stroke="black" points="401.63,-108.85 411.66,-105.45 401.7,-101.85 401.63,-108.85"/>
</g>
<!-- op_4340656288&#45;&gt;tensor_4340656288 -->
<g id="edge7" class="edge">
<title>op_4340656288-&gt;tensor_4340656288</title>
<path fill="none" stroke="black" d="M178.55,-104.14C186.22,-104.22 194.42,-104.3 202.37,-104.37"/>
<polygon fill="black" stroke="black" points="202.22,-107.87 212.25,-104.47 202.29,-100.87 202.22,-107.87"/>
</g>
<!-- op_4385974864&#45;&gt;tensor_4385974864 -->
<g id="edge11" class="edge">
<title>op_4385974864-&gt;tensor_4385974864</title>
<path fill="none" stroke="black" d="M161.78,-176.53C193.89,-176.05 261.06,-175.06 304.81,-174.41"/>
<polygon fill="black" stroke="black" points="304.74,-177.91 314.69,-174.26 304.64,-170.91 304.74,-177.91"/>
</g>
<!-- op_4385828368&#45;&gt;tensor_4385828368 -->
<g id="edge14" class="edge">
<title>op_4385828368-&gt;tensor_4385828368</title>
<path fill="none" stroke="black" d="M365.6,-28.8C396.61,-28.8 461.78,-28.8 504.77,-28.8"/>
<polygon fill="black" stroke="black" points="504.75,-32.3 514.75,-28.8 504.75,-25.3 504.75,-32.3"/>
</g>
</g>
</svg>