<svg xmlns="http://www.w3.org/2000/svg" xmlns:xlink="http://www.w3.org/1999/xlink" width="237pt" height="814pt" viewBox="0.00 0.00 237.00 814.00">
<g id="graph0" class="graph" transform="scale(1 1) rotate(0) translate(4 810.31)">
<title>computation_graph</title>
<polygon fill="white" stroke="none" points="-4,4 -4,-810.31 232.89,-810.31 232.89,4 -4,4"/>
<!-- tensor_4391284048 -->
<g id="node1" class="node">
<title>tensor_4391284048</title>
<polygon fill="lightblue" stroke="black" points="181.64,-806.31 107.75,-806.31 107.75,-748.71 181.64,-748.71 181.64,-806.31"/>
<text xml:space="preserve" text-anchor="middle" x="144.69" y="-791.01" font-family="Times,serif" font-size="9.00">var: z</text>
<text xml:space="preserve" text-anchor="middle" x="144.69" y="-780.21" font-family="Times,serif" font-size="9.00">shape: (1)</text>
<text xml:space="preserve" text-anchor="middle" x="144.69" y="-769.41" font-family="Times,serif" font-size="9.00">data: [8.847992]</text>
<text xml:space="preserve" text-anchor="middle" x="144.69" y="-758.61" font-family="Times,serif" font-size="9.00">grad: [1.]</text>
</g>
<!-- tensor_4379945408 -->
<g id="node2" class="node">
<title>tensor_4379945408</title>
<polygon fill="lightblue" stroke="black" points="149.64,-638.35 75.75,-638.35 75.75,-580.75 149.64,-580.75 149.64,-638.35"/>
<text xml:space="preserve" text-anchor="middle" x="112.69" y="-623.05" font-family="Times,serif" font-size="9.00">var: unnamed</text>
<text xml:space="preserve" text-anchor="middle" x="112.69" y="-612.25" font-family="Times,serif" font-size="9.00">shape: (1)</text>
<text xml:space="preserve" text-anchor="middle" x="112.69" y="-601.45" font-family="Times,serif" font-size="9.00">data: [8.154845]</text>
<text xml:space="preserve" text-anchor="middle" x="112.69" y="-590.65" font-family="Times,serif" font-size="9.00">grad: [1.]</text>
</g>
<!-- op_4391284048 -->
<g id="node9" class="node">
<title>op_4391284048</title>
<ellipse fill="orange" stroke="black" cx="144.69" cy="-693.53" rx="19.18" ry="19.18"/>
<text xml:space="preserve" text-anchor="middle" x="144.69" y="-690.83" font-family="Times,serif" font-size="9.00">add</text>
</g>
<!-- tensor_4379945408&#45;&gt;op_4391284048 -->
<g id="edge2" class="edge">
<title>tensor_4379945408-&gt;op_4391284048</title>
<path fill="none" stroke="black" d="M123.71,-638.76C127.02,-647.26 130.66,-656.58 133.96,-665.03"/>
<polygon fill="black" stroke="black" points="130.6,-666.06 137.5,-674.1 137.12,-663.51 130.6,-666.06"/>
</g>
<!-- tensor_4391546096 -->
<g id="node3" class="node">
<title>tensor_4391546096</title>
<polygon fill="lightblue" stroke="black" points="80.39,-445.87 1,-445.87 1,-388.27 80.39,-388.27 80.39,-445.87"/>
<text xml:space="preserve" text-anchor="middle" x="40.69" y="-430.57" font-family="Times,serif" font-size="9.00">var: unnamed</text>
<text xml:space="preserve" text-anchor="middle" x="40.69" y="-419.77" font-family="Times,serif" font-size="9.00">shape: (1)</text>
<text xml:space="preserve" text-anchor="middle" x="40.69" y="-408.97" font-family="Times,serif" font-size="9.00">data: [3.]</text>
<text xml:space="preserve" text-anchor="middle" x="40.69" y="-398.17" font-family="Times,serif" font-size="9.00">grad: [2.7182817]</text>
</g>
<!-- op_4379945408 -->
<g id="node10" class="node">
<title>op_4379945408</title>
<ellipse fill="orange" stroke="black" cx="100.69" cy="-513.31" rx="31.44" ry="31.44"/>
<text xml:space="preserve" text-anchor="middle" x="100.69" y="-510.61" font-family="Times,serif" font-size="9.00">multiply</text>
</g>
<!-- tensor_4391546096&#45;&gt;op_4379945408 -->
<g id="edge4" class="edge">
<title>tensor_4391546096-&gt;op_4379945408</title>
<path fill="none" stroke="black" d="M58.7,-446.35C64.75,-455.86 71.59,-466.6 77.97,-476.61"/>
<polygon fill="black" stroke="black" points="75,-478.48 83.32,-485.03 80.91,-474.72 75,-478.48"/>
</g>
<!-- tensor_4392141600 -->
<g id="node4" class="node">
<title>tensor_4392141600</title>
<polygon fill="lightblue" stroke="black" points="79.39,-258.67 0,-258.67 0,-201.07 79.39,-201.07 79.39,-258.67"/>
<text xml:space="preserve" text-anchor="middle" x="39.69" y="-243.37" font-family="Times,serif" font-size="9.00">var: unnamed</text>
<text xml:space="preserve" text-anchor="middle" x="39.69" y="-232.57" font-family="Times,serif" font-size="9.00">shape: (1)</text>
<text xml:space="preserve" text-anchor="middle" x="39.69" y="-221.77" font-family="Times,serif" font-size="9.00">data: [1.]</text>
<text xml:space="preserve" text-anchor="middle" x="39.69" y="-210.97" font-family="Times,serif" font-size="9.00">grad: [2.7182817]</text>
</g>
<!-- op_4391546096 -->
<g id="node11" class="node">
<title>op_4391546096</title>
<ellipse fill="orange" stroke="black" cx="38.69" cy="-323.47" rx="19.18" ry="19.18"/>
<text xml:space="preserve" text-anchor="middle" x="38.69" y="-320.77" font-family="Times,serif" font-size="9.00">add</text>
</g>
<!-- tensor_4392141600&#45;&gt;op_4391546096 -->
<g id="edge6" class="edge">
<title>tensor_4392141600-&gt;op_4391546096</title>
<path fill="none" stroke="black" d="M39.39,-258.85C39.27,-269.48 39.14,-281.62 39.02,-292.43"/>
<polygon fill="black" stroke="black" points="35.52,-292.37 38.91,-302.41 42.52,-292.44 35.52,-292.37"/>
</g>
<!-- tensor_4392112208 -->
<g id="node5" class="node">
<title>tensor_4392112208</title>
<polygon fill="lightblue" stroke="black" points="116.39,-57.6 37,-57.6 37,0 116.39,0 116.39,-57.6"/>
<text xml:space="preserve" text-anchor="middle" x="76.69" y="-42.3" font-family="Times,serif" font-size="9.00">var: x</text>
<text xml:space="preserve" text-anchor="middle" x="76.69" y="-31.5" font-family="Times,serif" font-size="9.00">shape: (1)</text>
<text xml:space="preserve" text-anchor="middle" x="76.69" y="-20.7" font-family="Times,serif" font-size="9.00">data: [1.]</text>
<text xml:space="preserve" text-anchor="middle" x="76.69" y="-9.9" font-family="Times,serif" font-size="9.00">grad: [13.591409]</text>
</g>
<!-- op_4392141600 -->
<g id="node12" class="node">
<title>op_4392141600</title>
<ellipse fill="orange" stroke="black" cx="40.69" cy="-129.34" rx="35.74" ry="35.74"/>
<text xml:space="preserve" text-anchor="middle" x="40.69" y="-126.64" font-family="Times,serif" font-size="9.00">&lt;lambda&gt;</text>
</g>
<!-- tensor_4392112208&#45;&gt;op_4392141600 -->
<g id="edge8" class="edge">
<title>tensor_4392112208-&gt;op_4392141600</title>
<path fill="none" stroke="black" d="M66.38,-58.04C63.36,-66.28 60,-75.5 56.72,-84.47"/>
<polygon fill="black" stroke="black" points="53.46,-83.2 53.31,-93.8 60.03,-85.61 53.46,-83.2"/>
</g>
<!-- op_4391545872 -->
<g id="node13" class="node">
<title>op_4391545872</title>
<ellipse fill="orange" stroke="black" cx="113.69" cy="-129.34" rx="19.18" ry="19.18"/>
<text xml:space="preserve" text-anchor="middle" x="113.69" y="-126.64" font-family="Times,serif" font-size="9.00">exp</text>
</g>
<!-- tensor_4392112208&#45;&gt;op_4391545872 -->
<g id="edge12" class="edge">
<title>tensor_4392112208-&gt;op_4391545872</title>
<path fill="none" stroke="black" d="M87.3,-58.04C92.3,-71.37 98.26,-87.22 103.24,-100.5"/>
<polygon fill="black" stroke="black" points="99.83,-101.39 106.63,-109.52 106.39,-98.93 99.83,-101.39"/>
</g>
<!-- tensor_4381957712 -->
<g id="node6" class="node">
<title>tensor_4381957712</title>
<polygon fill="lightblue" stroke="black" points="225.39,-258.67 146,-258.67 146,-201.07 225.39,-201.07 225.39,-258.67"/>
<text xml:space="preserve" text-anchor="middle" x="185.69" y="-243.37" font-family="Times,serif" font-size="9.00">var: y</text>
<text xml:space="preserve" text-anchor="middle" x="185.69" y="-232.57" font-family="Times,serif" font-size="9.00">shape: (1)</text>
<text xml:space="preserve" text-anchor="middle" x="185.69" y="-221.77" font-family="Times,serif" font-size="9.00">data: [2.]</text>
<text xml:space="preserve" text-anchor="middle" x="185.69" y="-210.97" font-family="Times,serif" font-size="9.00">grad: [3.2182817]</text>
</g>
<!-- tensor_4381957712&#45;&gt;op_4391546096 -->
<g id="edge9" class="edge">
<title>tensor_4381957712-&gt;op_4391546096</title>
<path fill="none" stroke="black" d="M145.67,-248.72C121.73,-260.25 91.29,-276.48 66.69,-294.67 64.11,-296.58 61.54,-298.72 59.05,-300.95"/>
<polygon fill="black" stroke="black" points="56.95,-298.12 52.17,-307.57 61.8,-303.16 56.95,-298.12"/>
</g>
<!-- op_4391283088 -->
<g id="node14" class="node">
<title>op_4391283088</title>
<ellipse fill="orange" stroke="black" cx="189.69" cy="-323.47" rx="18.13" ry="18.13"/>
<text xml:space="preserve" text-anchor="middle" x="189.69" y="-320.77" font-family="Times,serif" font-size="9.00">log</text>
</g>
<!-- tensor_4381957712&#45;&gt;op_4391283088 -->
<g id="edge15" class="edge">
<title>tensor_4381957712-&gt;op_4391283088</title>
<path fill="none" stroke="black" d="M186.92,-258.85C187.4,-269.9 187.95,-282.59 188.44,-293.72"/>
<polygon fill="black" stroke="black" points="184.93,-293.67 188.87,-303.51 191.93,-293.37 184.93,-293.67"/>
</g>
<!-- tensor_4391545872 -->
<g id="node7" class="node">
<title>tensor_4391545872</title>
<polygon fill="lightblue" stroke="black" points="153.89,-352.27 75.5,-352.27 75.5,-294.67 153.89,-294.67 153.89,-352.27"/>
<text xml:space="preserve" text-anchor="middle" x="114.69" y="-336.97" font-family="Times,serif" font-size="9.00">var: unnamed</text>
<text xml:space="preserve" text-anchor="middle" x="114.69" y="-326.17" font-family="Times,serif" font-size="9.00">shape: (1)</text>
<text xml:space="preserve" text-anchor="middle" x="114.69" y="-315.37" font-family="Times,serif" font-size="9.00">data: [2.7182817]</text>
<text xml:space="preserve" text-anchor="middle" x="114.69" y="-304.57" font-family="Times,serif" font-size="9.00">grad: [3.]</text>
</g>
<!-- tensor_4391545872&#45;&gt;op_4379945408 -->
<g id="edge10" class="edge">
<title>tensor_4391545872-&gt;op_4379945408</title>
<path fill="none" stroke="black" d="M112.6,-352.59C110.27,-383.81 106.49,-434.51 103.82,-470.4"/>
<polygon fill="black" stroke="black" points="100.36,-469.75 103.1,-479.99 107.34,-470.27 100.36,-469.75"/>
</g>
<!-- tensor_4391283088 -->
<g id="node8" class="node">
<title>tensor_4391283088</title>
<polygon fill="lightblue" stroke="black" points="228.89,-542.11 150.5,-542.11 150.5,-484.51 228.89,-484.51 228.89,-542.11"/>
<text xml:space="preserve" text-anchor="middle" x="189.69" y="-526.81" font-family="Times,serif" font-size="9.00">var: unnamed</text>
<text xml:space="preserve" text-anchor="middle" x="189.69" y="-516.01" font-family="Times,serif" font-size="9.00">shape: (1)</text>
<text xml:space="preserve" text-anchor="middle" x="189.69" y="-505.21" font-family="Times,serif" font-size="9.00">data: [0.6931472]</text>
<text xml:space="preserve" text-anchor="middle" x="189.69" y="-494.41" font-family="Times,serif" font-size="9.00">grad: [1.]</text>
</g>
<!-- tensor_4391283088&#45;&gt;op_4391284048 -->
<g id="edge13" class="edge">
<title>tensor_4391283088-&gt;op_4391284048</title>
<path fill="none" stroke="black" d="M182.74,-542.41C176.5,-567.56 167.06,-605.43 158.69,-638.35 156.61,-646.54 154.33,-655.42 152.22,-663.58"/>
<polygon fill="black" stroke="black" points="148.89,-662.45 149.78,-673.01 155.67,-664.21 148.89,-662.45"/>
</g>
<!-- op_4391284048&#45;&gt;tensor_4391284048 -->
<g id="edge1" class="edge">
<title>op_4391284048-&gt;tensor_4391284048</title>
<path fill="none" stroke="black" d="M144.69,-713.13C144.69,-720.2 144.69,-728.54 144.69,-736.81"/>
<polygon fill="black" stroke="black" points="141.19,-736.81 144.69,-746.81 148.19,-736.81 141.19,-736.81"/>
</g>
<!-- op_4379945408&#45;&gt;tensor_4379945408 -->
<g id="edge3" class="edge">
<title>op_4379945408-&gt;tensor_4379945408</title>
<path fill="none" stroke="black" d="M104.59,-544.91C105.58,-552.65 106.65,-561.08 107.68,-569.19"/>
<polygon fill="black" stroke="black" points="104.17,-569.36 108.91,-578.84 111.12,-568.48 104.17,-569.36"/>
</g>
<!-- op_4391546096&#45;&gt;tensor_4391546096 -->
<g id="edge5" class="edge">
<title>op_4391546096-&gt;tensor_4391546096</title>
<path fill="none" stroke="black" d="M39.1,-343.01C39.31,-352.65 39.57,-364.84 39.83,-376.47"/>
<polygon fill="black" stroke="black" points="36.33,-376.38 40.04,-386.3 43.32,-376.23 36.33,-376.38"/>
</g>
<!-- op_4392141600&#45;&gt;tensor_4392141600 -->
<g id="edge7" class="edge">
<title>op_4392141600-&gt;tensor_4392141600</title>
<path fill="none" stroke="black" d="M40.34,-165.35C40.26,-173.16 40.17,-181.49 40.09,-189.45"/>
<polygon fill="black" stroke="black" points="36.6,-189.22 39.99,-199.26 43.6,-189.29 36.6,-189.22"/>
</g>
<!-- op_4391545872&#45;&gt;tensor_4391545872 -->
<g id="edge11" class="edge">
<title>op_4391545872-&gt;tensor_4391545872</title>
<path fill="none" stroke="black" d="M113.79,-148.76C113.95,-179.45 114.27,-241.72 114.49,-282.76"/>
<polygon fill="black" stroke="black" points="110.99,-282.74 114.54,-292.73 117.99,-282.71 110.99,-282.74"/>
</g>
<!-- op_4391283088&#45;&gt;tensor_4391283088 -->
<g id="edge14" class="edge">
<title>op_4391283088-&gt;tensor_4391283088</title>
<path fill="none" stroke="black" d="M189.69,-341.81C189.69,-371.4 189.69,-432.38 189.69,-472.82"/>
<polygon fill="black" stroke="black" points="186.19,-472.62 189.69,-482.62 193.19,-472.62 186.19,-472.62"/>
</g>
</g>
</svg>